<?xml version="1.0" standalone="no"?>
<!DOCTYPE svg PUBLIC "-//W3C//DTD SVG 20010904//EN"
 "http://www.w3.org/TR/2001/REC-SVG-20010904/DTD/svg10.dtd">
<svg version="1.0" xmlns="http://www.w3.org/2000/svg"
 width="293.000000pt" height="293.000000pt" viewBox="0 0 293.000000 293.000000"
 preserveAspectRatio="xMidYMid meet">
<metadata>
Created by potrace 1.14, written by Peter Selinger 2001-2017
</metadata>
<g transform="translate(0.000000,293.000000) scale(0.100000,-0.100000)"
fill="#000000" stroke="none">
<path d="M1271 2700 c-485 -68 -877 -365 -1055 -800 -147 -357 -100 -806 117
-1133 213 -319 571 -516 942 -517 396 -1 776 218 960 553 307 559 18 1269
-580 1429 -113 30 -326 30 -440 -1 -300 -80 -534 -306 -611 -591 -27 -99 -25
-301 4 -403 119 -418 534 -637 922 -486 392 152 508 649 217 931 -241 234
-658 126 -716 -185 -25 -136 38 -275 151 -331 130 -65 284 -2 317 128 28 114
-81 226 -183 188 -16 -7 -32 -9 -35 -7 -8 9 43 57 76 71 142 61 303 -71 304
-248 1 -134 -75 -248 -208 -311 -63 -30 -76 -32 -173 -32 -97 0 -110 2 -170
31 -172 82 -280 258 -280 458 0 156 46 262 165 382 123 124 265 184 440 184
293 0 551 -201 647 -504 25 -80 35 -272 19 -358 -51 -259 -255 -496 -512 -592
-224 -84 -489 -72 -694 32 -254 128 -439 375 -500 667 -20 99 -21 287 -1 382
8 38 28 107 45 151 124 341 462 607 840 662 118 18 324 8 426 -20 473 -129
802 -529 855 -1041 30 -295 -72 -626 -266 -864 -53 -66 -64 -87 -64 -125 0
-71 53 -120 129 -120 32 0 49 7 79 34 97 88 235 324 296 506 60 182 71 252 71
465 -1 207 -11 278 -67 453 -155 489 -545 842 -1043 947 -93 20 -331 28 -424
15z"/>
</g>
</svg>
